<svg width="328" height="274" viewBox="0 0 328 274" fill="none" xmlns="http://www.w3.org/2000/svg">
<rect x="1.5" y="1.5" width="325" height="271" rx="18.5" stroke="white" stroke-width="3"/>
<path d="M207.332 137C196.195 137 185.427 132.41 176.999 124.08C168.803 115.955 163.798 105.12 162.915 93.58C161.973 81.27 166.041 69.95 174.366 61.7C182.692 53.45 194.332 49 207.332 49C220.24 49 231.913 53.53 240.211 61.76C248.59 70.07 252.669 81.37 251.727 93.575C250.822 105.13 245.822 115.96 237.643 124.075C229.237 132.41 218.474 137 207.332 137ZM278.739 225H135.93C133.634 225.011 131.365 224.536 129.299 223.611C127.234 222.686 125.425 221.336 124.013 219.665C122.515 217.853 121.481 215.752 120.988 213.519C120.494 211.286 120.555 208.978 121.164 206.77C125.725 189.865 137.024 175.845 153.837 166.23C168.76 157.7 187.756 153 207.332 153C227.292 153 245.79 157.5 260.799 166.025C277.651 175.59 288.966 189.69 293.505 206.8C294.107 209.01 294.161 211.317 293.662 213.549C293.163 215.781 292.124 217.88 290.623 219.69C289.213 221.353 287.409 222.697 285.349 223.617C283.289 224.538 281.028 225.011 278.739 225ZM104.957 139C85.8962 139 69.1371 122.64 67.5825 102.535C66.8134 92.235 70.2909 82.71 77.3325 75.725C84.2983 68.81 94.1241 65 104.957 65C115.791 65 125.541 68.83 132.544 75.785C139.64 82.825 143.107 92.33 142.294 102.545C140.74 122.645 123.986 139 104.957 139ZM140.523 154.725C130.995 150.425 118.629 148.275 104.963 148.275C89.0053 148.275 73.5083 152.115 61.3209 159.085C47.5031 167 38.2081 178.525 34.4544 192.44C33.9051 194.441 33.8531 196.532 34.3024 198.554C34.7517 200.577 35.6906 202.479 37.049 204.12C38.3378 205.647 39.989 206.881 41.8755 207.727C43.7621 208.573 45.8336 209.009 47.931 209H108.056C109.07 209 110.053 208.671 110.832 208.07C111.611 207.47 112.137 206.636 112.319 205.715C112.378 205.4 112.454 205.085 112.541 204.775C117.134 187.745 127.897 173.355 143.8 162.865C144.385 162.476 144.855 161.958 145.169 161.358C145.482 160.759 145.629 160.097 145.595 159.432C145.561 158.767 145.348 158.121 144.975 157.551C144.602 156.981 144.081 156.507 143.459 156.17C142.608 155.71 141.633 155.225 140.523 154.725Z" fill="white"/>
</svg>
