<svg width="30" height="30" viewBox="0 0 30 30" fill="none" xmlns="http://www.w3.org/2000/svg">
<path d="M20.5 12C20.5 8.96125 18.0387 6.5 15 6.5C11.9612 6.5 9.5 8.96125 9.5 12C9.5 15.0387 11.9612 17.5 15 17.5C18.0387 17.5 20.5 15.0387 20.5 12ZM12.25 12C12.25 10.4875 13.4875 9.25 15 9.25C16.5125 9.25 17.75 10.4875 17.75 12C17.75 13.5125 16.5125 14.75 15 14.75C13.4875 14.75 12.25 13.5125 12.25 12Z" fill="white"/>
<path d="M14.13 28.7341C14.385 28.902 14.7 29 15 29C15.3 29 15.615 28.916 15.87 28.7341C16.32 28.4263 27.0449 21.2199 26.9999 12.1944C26.9999 6.02349 21.6149 1 15 1C8.38508 1 3.00014 6.02349 3.00014 12.1944C2.95514 21.2059 13.68 28.4263 14.13 28.7341ZM15 3.81259C19.9649 3.81259 23.9999 7.57671 23.9999 12.2084C24.0299 18.4213 17.415 24.0045 15 25.8376C12.585 24.0045 5.97011 18.4353 6.00011 12.2084C6.00011 7.57671 10.0351 3.81259 15 3.81259Z" fill="white"/>
</svg>
