<svg width="177" height="52" viewBox="0 0 177 52" fill="none" xmlns="http://www.w3.org/2000/svg">
<path d="M177 10.7198H167.023C164.633 14.4207 161.904 17.888 158.871 21.0762C155.808 17.9132 153.074 14.4429 150.713 10.7198H140.631C144.109 16.1145 148.097 21.1591 152.538 25.7837C148.185 30.6383 144.205 35.8176 140.631 41.2772H150.713C153.069 37.4508 155.802 33.8727 158.871 30.5971C161.861 33.897 164.525 37.4818 166.824 41.3007H177C173.463 35.8212 169.499 30.6326 165.146 25.7837C169.499 21.0959 173.463 16.0578 177 10.7198ZM131.209 14.7506C129.968 13.1894 128.385 11.9386 126.583 11.0964C124.781 10.2541 122.809 9.84324 120.823 9.89596C116.688 10.0146 112.768 11.7751 109.919 14.7928C107.07 17.8106 105.524 21.8402 105.618 26.0014C105.528 30.1613 107.076 34.1883 109.924 37.205C112.772 40.2217 116.69 41.9837 120.823 42.1069C122.808 42.1565 124.777 41.7454 126.578 40.9056C128.379 40.0657 129.964 38.8197 131.209 37.2641V41.2889H139.163V10.7198H131.209V14.7506ZM122.086 35.0339C120.313 35.0339 118.58 34.5048 117.106 33.5136C115.631 32.5224 114.482 31.1136 113.804 29.4653C113.125 27.8169 112.948 26.0032 113.294 24.2533C113.639 22.5035 114.493 20.8962 115.747 19.6346C117.001 18.373 118.598 17.5139 120.337 17.1658C122.076 16.8177 123.879 16.9964 125.517 17.6791C127.155 18.3619 128.556 19.5181 129.541 21.0016C130.526 22.485 131.052 24.2291 131.052 26.0132C131.054 27.1985 130.824 28.3725 130.374 29.468C129.924 30.5635 129.264 31.5589 128.431 32.397C127.598 33.2351 126.609 33.8995 125.52 34.352C124.431 34.8045 123.264 35.0362 122.086 35.0339ZM96.2027 9.89596C92.2285 10.1714 88.4625 11.7862 85.5124 14.4799C84.9638 13.0749 83.9924 11.8776 82.734 11.0557C81.4757 10.2337 79.9934 9.82824 78.4947 9.89596C74.5475 10.1958 70.8171 11.8299 67.9096 14.5328V10.7198H60.0381V41.3184H68.395V22.2884C72.0442 19.3874 73.7168 18.4695 75.0853 18.4695C76.7052 18.4695 77.7695 19.4874 77.7695 22.0354V41.3007H86.1265V22.2531C89.7698 19.3992 91.3898 18.4812 92.8108 18.4812C94.4308 18.4812 95.4951 19.4992 95.4951 22.0471V41.3125H103.852V19.0814C103.852 12.1967 99.9514 9.89596 96.2027 9.89596Z" fill="white"/>
<path d="M15.2573 47.1105C25.6928 56.3324 51.2257 45.6156 51.1263 26.7898C51.0579 13.8807 40.4029 1.11647 27.1904 1.00108C14.8764 0.89467 1.82401 8.64474 1.07262 23.7795C0.850564 28.286 1.07262 35.1373 2.6619 38.8181C5.67648 47.4079 2.80778 49.6862 6.28198 50.7772C9.39511 51.5464 12.3873 50.3238 15.2586 47.1092" fill="white"/>
<path d="M15.2573 47.1105C25.6928 56.3324 51.2257 45.6156 51.1263 26.7898C51.0579 13.8807 40.4029 1.11647 27.1904 1.00108C14.8764 0.89467 1.82401 8.64474 1.07262 23.7795C0.850564 28.286 1.07262 35.1373 2.6619 38.8181C5.67648 47.4079 2.80778 49.6862 6.28198 50.7772C9.39511 51.5464 12.3873 50.3238 15.2586 47.1092" stroke="white" stroke-width="2" stroke-linecap="round" stroke-linejoin="round"/>
<path d="M19.346 37.7717C25.833 43.5042 41.7048 36.8424 41.643 25.1399C41.6005 17.1153 34.9771 9.1808 26.7639 9.10907C19.1093 9.04292 10.9956 13.8605 10.5285 23.2686C10.3905 26.0699 10.5285 30.3289 11.5165 32.617C13.3904 37.9566 11.6072 39.3728 13.7668 40.051C15.702 40.5292 17.5612 39.7699 19.346 37.7717Z" fill="#4C1BFF"/>
</svg>
