<svg width="30" height="30" viewBox="0 0 30 30" fill="none" xmlns="http://www.w3.org/2000/svg">
<path d="M15.0005 15C13.0731 15 11.2095 14.2176 9.75089 12.7977C8.33243 11.4128 7.46622 9.5659 7.3134 7.59886C7.15037 5.50056 7.85441 3.57101 9.2952 2.16476C10.7362 0.758522 12.7507 0 15.0005 0C17.2345 0 19.2547 0.772156 20.6908 2.17499C22.141 3.59147 22.8469 5.5176 22.6839 7.598C22.5273 9.56759 21.6619 11.4136 20.2464 12.7969C18.7916 14.2176 16.9289 15 15.0005 15ZM27.3588 30H2.64317C2.24574 30.0019 1.85319 29.9209 1.49563 29.7632C1.13809 29.6055 0.825094 29.3754 0.580738 29.0905C0.321536 28.7818 0.142535 28.4235 0.0571443 28.0429C-0.0282494 27.6624 -0.017817 27.2689 0.0876353 26.8925C0.876963 24.0109 2.8325 21.6212 5.74229 19.9824C8.32498 18.5283 11.6126 17.7272 15.0005 17.7272C18.455 17.7272 21.6564 18.4942 24.254 19.9474C27.1705 21.5779 29.1287 23.9811 29.9143 26.8976C30.0185 27.2744 30.0278 27.6677 29.9415 28.0481C29.8551 28.4285 29.6753 28.7864 29.4155 29.0948C29.1715 29.3784 28.8593 29.6074 28.5028 29.7642C28.1462 29.9211 27.7549 30.0019 27.3588 30Z" fill="white"/>
</svg>
