<svg width="35" height="33" viewBox="0 0 35 33" fill="none" xmlns="http://www.w3.org/2000/svg">
<path d="M17.499 1C17.6835 1 17.8822 1.04759 18.1064 1.17383C18.2587 1.2596 18.3786 1.38598 18.4688 1.59961L18.4697 1.60352L22.3027 10.583L22.5381 11.1348L23.1367 11.1865L33.0176 12.042C33.3525 12.0921 33.5223 12.1862 33.6064 12.2588C33.7389 12.3732 33.8521 12.5294 33.9355 12.7559C34.0055 12.9458 34.0187 13.1307 33.9746 13.333C33.9422 13.4816 33.8579 13.6455 33.6523 13.8271L26.1504 20.2256L25.6865 20.6221L25.8262 21.2158L28.0742 30.748V30.749C28.1323 30.9975 28.1022 31.1554 28.0449 31.2744C27.9416 31.4888 27.8031 31.6582 27.624 31.7949C27.4783 31.9061 27.3042 31.9772 27.0723 31.9971C26.8987 32.0119 26.7226 31.9749 26.5166 31.8447L26.4932 31.8311L18.0107 26.7861L17.499 26.4824L16.9883 26.7861L8.50488 31.8311L8.49414 31.8369L8.48438 31.8438C8.27739 31.9738 8.09881 32.0115 7.92285 31.9971C7.75089 31.9829 7.61128 31.9394 7.49121 31.8721L7.37695 31.7969L7.24805 31.6855C7.12773 31.5689 7.03055 31.4327 6.95312 31.2725C6.8971 31.1565 6.86613 31.0006 6.92383 30.751L9.17188 21.2158L9.31152 20.6221L8.84766 20.2256L1.34277 13.8242C1.14182 13.6433 1.05782 13.4798 1.02539 13.3311C0.98099 13.1272 0.994542 12.9423 1.06348 12.7539C1.14502 12.5311 1.25698 12.3752 1.3916 12.2588C1.47769 12.1844 1.64875 12.0896 1.98438 12.041L11.8623 11.1865L12.46 11.1348L12.6953 10.583L16.5283 1.60352L16.5293 1.59961C16.6194 1.38605 16.7394 1.2596 16.8916 1.17383C17.1158 1.04761 17.3146 1.00002 17.499 1Z" stroke="#C2C2C2" stroke-width="2"/>
</svg>
