<svg width="166" height="27" viewBox="0 0 166 27" fill="none" xmlns="http://www.w3.org/2000/svg">
<path d="M13.464 26.136C10.824 26.136 8.50668 25.784 6.51201 25.08C4.54668 24.376 2.99201 23.364 1.84801 22.044C0.733345 20.724 0.117345 19.1547 1.17496e-05 17.336H5.54401C5.77868 18.7734 6.57068 19.8734 7.92001 20.636C9.29868 21.3694 11.1467 21.736 13.464 21.736C15.6933 21.736 17.4387 21.4427 18.7 20.856C19.9613 20.24 20.592 19.3014 20.592 18.04C20.592 17.0134 20.064 16.2507 19.008 15.752C17.9813 15.2534 16.3387 15.004 14.08 15.004H9.15201V11.044H13.948C15.972 11.044 17.468 10.736 18.436 10.12C19.4333 9.50402 19.932 8.74135 19.932 7.83202C19.932 6.71735 19.3453 5.86669 18.172 5.28002C16.9987 4.69335 15.4587 4.40002 13.552 4.40002C11.44 4.40002 9.72401 4.73735 8.40401 5.41202C7.08401 6.08669 6.30668 7.09869 6.07201 8.44802H0.528012C0.674678 6.86402 1.27601 5.44135 2.33201 4.18002C3.41735 2.88935 4.92801 1.87735 6.86401 1.14402C8.80001 0.381351 11.1027 1.7643e-05 13.772 1.7643e-05C16.2067 1.7643e-05 18.3187 0.308018 20.108 0.924019C21.8973 1.54002 23.276 2.39068 24.244 3.47602C25.2413 4.53202 25.74 5.74935 25.74 7.12802C25.74 8.24269 25.388 9.26935 24.684 10.208C24.0093 11.1467 22.9387 11.8947 21.472 12.452C20.0347 13.0094 18.172 13.288 15.884 13.288V12.54C19.228 12.4227 21.824 12.8774 23.672 13.904C25.52 14.9014 26.444 16.3974 26.444 18.392C26.444 19.888 25.9307 21.2227 24.904 22.396C23.9067 23.5694 22.44 24.4934 20.504 25.168C18.568 25.8134 16.2213 26.136 13.464 26.136ZM30.6237 25.52L31.8997 13.068L30.6237 0.616018H48.6637C51.069 0.616018 52.9463 1.17335 54.2957 2.28802C55.6743 3.40269 56.3637 4.94269 56.3637 6.90802C56.3637 8.72669 55.6743 10.1934 54.2957 11.308C52.9463 12.3934 51.0543 13.0387 48.6197 13.244L49.0597 12.188C51.9343 12.2467 54.1343 12.8334 55.6597 13.948C57.185 15.0627 57.9477 16.632 57.9477 18.656C57.9477 20.7974 57.1703 22.484 55.6157 23.716C54.0903 24.9187 51.9637 25.52 49.2357 25.52H30.6237ZM36.1677 24.112L33.9677 21.56H47.7837C49.3383 21.56 50.453 21.2667 51.1277 20.68C51.8317 20.064 52.1837 19.2134 52.1837 18.128C52.1837 17.16 51.7877 16.3534 50.9957 15.708C50.233 15.0627 48.9423 14.74 47.1237 14.74H35.1997V11.044H46.2877C47.7837 11.044 48.869 10.7507 49.5437 10.164C50.2477 9.54802 50.5997 8.75602 50.5997 7.78802C50.5997 6.84935 50.2917 6.08669 49.6757 5.50002C49.089 4.88402 48.0917 4.57602 46.6837 4.57602H34.0117L36.1677 2.06802L37.3997 13.068L36.1677 24.112ZM76.1589 26.136C73.2549 26.136 70.6735 25.5934 68.4149 24.508C66.1562 23.3934 64.3815 21.8534 63.0909 19.888C61.8002 17.9227 61.1549 15.6347 61.1549 13.024C61.1549 10.4427 61.7562 8.18402 62.9589 6.24802C64.1909 4.28269 65.8775 2.75735 68.0189 1.67202C70.1895 0.557351 72.6682 1.7643e-05 75.4549 1.7643e-05C78.2415 1.7643e-05 80.6469 0.630685 82.6709 1.89202C84.7242 3.12402 86.3082 4.86935 87.4229 7.12802C88.5375 9.38669 89.0949 12.0414 89.0949 15.092H65.6429V10.736H86.2349L83.3749 12.364C83.2869 10.7214 82.8909 9.31335 82.1869 8.14002C81.5122 6.96669 80.5882 6.07202 79.4149 5.45602C78.2709 4.81069 76.9069 4.48802 75.3229 4.48802C73.6509 4.48802 72.1842 4.82535 70.9229 5.50002C69.6909 6.17469 68.7229 7.12802 68.0189 8.36002C67.3149 9.56269 66.9629 11 66.9629 12.672C66.9629 14.52 67.3735 16.1187 68.1949 17.468C69.0455 18.8174 70.2335 19.8587 71.7589 20.592C73.3135 21.296 75.1469 21.648 77.2589 21.648C79.1655 21.648 81.1162 21.3547 83.1109 20.768C85.1055 20.152 86.8655 19.3014 88.3909 18.216V22.352C86.8655 23.5254 85.0029 24.4494 82.8029 25.124C80.6322 25.7987 78.4175 26.136 76.1589 26.136ZM93.8011 0.616018H99.4771V25.52H93.8011V0.616018ZM114.965 0.616018H120.641V25.52H114.965V0.616018ZM97.0131 10.692H117.341V15.092H97.0131V10.692ZM140.487 26.136C137.466 26.136 134.811 25.5934 132.523 24.508C130.265 23.3934 128.49 21.8534 127.199 19.888C125.938 17.9227 125.307 15.6494 125.307 13.068C125.307 10.4574 125.938 8.18402 127.199 6.24802C128.49 4.28269 130.265 2.75735 132.523 1.67202C134.811 0.557351 137.466 1.7643e-05 140.487 1.7643e-05C143.509 1.7643e-05 146.149 0.557351 148.407 1.67202C150.695 2.75735 152.47 4.28269 153.731 6.24802C155.022 8.18402 155.667 10.4574 155.667 13.068C155.667 15.6494 155.022 17.9227 153.731 19.888C152.47 21.8534 150.695 23.3934 148.407 24.508C146.149 25.5934 143.509 26.136 140.487 26.136ZM140.487 21.648C142.423 21.648 144.081 21.296 145.459 20.592C146.867 19.888 147.953 18.9054 148.715 17.644C149.478 16.3534 149.859 14.828 149.859 13.068C149.859 11.308 149.478 9.79735 148.715 8.53602C147.953 7.24535 146.867 6.24802 145.459 5.54402C144.081 4.84002 142.423 4.48802 140.487 4.48802C138.581 4.48802 136.923 4.84002 135.515 5.54402C134.107 6.24802 133.022 7.24535 132.259 8.53602C131.497 9.79735 131.115 11.308 131.115 13.068C131.115 14.828 131.497 16.3534 132.259 17.644C133.022 18.9054 134.107 19.888 135.515 20.592C136.923 21.296 138.581 21.648 140.487 21.648ZM162.269 25.872C161.595 25.872 160.979 25.7107 160.421 25.388C159.893 25.0654 159.468 24.64 159.145 24.112C158.823 23.5547 158.661 22.9387 158.661 22.264C158.661 21.5894 158.823 20.988 159.145 20.46C159.468 19.9027 159.893 19.4627 160.421 19.14C160.979 18.8174 161.595 18.656 162.269 18.656C162.944 18.656 163.545 18.8174 164.073 19.14C164.631 19.4627 165.071 19.9027 165.393 20.46C165.716 20.988 165.877 21.5894 165.877 22.264C165.877 22.9387 165.716 23.5547 165.393 24.112C165.071 24.64 164.631 25.0654 164.073 25.388C163.545 25.7107 162.944 25.872 162.269 25.872Z" fill="white"/>
</svg>
